/* XPM */
static char * heptacoin16_xpm[] = {
"16 16 122 2",
"  	c None",
". 	c #464647",
"+ 	c #999999",
"@ 	c #DADADA",
"# 	c #D8D8D8",
"$ 	c #A7A8A7",
"% 	c #4E4E4E",
"& 	c #A2A2A2",
"* 	c #E9E5E1",
"= 	c #8094A9",
"- 	c #7F8994",
"; 	c #8F9498",
"> 	c #7289A1",
", 	c #E8E6E2",
"' 	c #B1B1B0",
") 	c #5C5C5C",
"! 	c #E5E5E5",
"~ 	c #A0A2A4",
"{ 	c #2E6397",
"] 	c #326799",
"^ 	c #2F6599",
"/ 	c #2C6399",
"( 	c #336799",
"_ 	c #2E6498",
": 	c #8A929D",
"< 	c #E4E4E4",
"[ 	c #9D9D9D",
"} 	c #B2B0AD",
"| 	c #627A93",
"1 	c #1A538C",
"2 	c #1A548D",
"3 	c #265D92",
"4 	c #285E92",
"5 	c #46698D",
"6 	c #A19D9B",
"7 	c #ADADAD",
"8 	c #C4C4C3",
"9 	c #517090",
"0 	c #9DB7D0",
"a 	c #FFFFFF",
"b 	c #89A7C3",
"c 	c #C2D1DE",
"d 	c #D7E1EA",
"e 	c #396490",
"f 	c #D8D6D4",
"g 	c #373737",
"h 	c #E8E4E0",
"i 	c #366796",
"j 	c #275E93",
"k 	c #1B558C",
"l 	c #668CB0",
"m 	c #BECFDB",
"n 	c #104D87",
"o 	c #4A77A3",
"p 	c #4674A0",
"q 	c #296197",
"r 	c #F0ECE6",
"s 	c #3E3E3E",
"t 	c #5B5B5B",
"u 	c #DEDBD9",
"v 	c #356899",
"w 	c #2C6195",
"x 	c #D3DDE7",
"y 	c #CFD9E3",
"z 	c #B4C7D8",
"A 	c #306598",
"B 	c #30659A",
"C 	c #C5C6C7",
"D 	c #818181",
"E 	c #C9C9C9",
"F 	c #B8B8B9",
"G 	c #7F8C9A",
"H 	c #306599",
"I 	c #9FB8CE",
"J 	c #E9EFF3",
"K 	c #154F88",
"L 	c #43719E",
"M 	c #37699A",
"N 	c #708599",
"O 	c #A4A4A6",
"P 	c #D9D9D8",
"Q 	c #E5E6E6",
"R 	c #647D95",
"S 	c #41729F",
"T 	c #658CB0",
"U 	c #285E93",
"V 	c #F2F6F8",
"W 	c #A5BBD0",
"X 	c #346799",
"Y 	c #547392",
"Z 	c #EEEDED",
"` 	c #686868",
" .	c #EFEEEC",
"..	c #316091",
"+.	c #1D568E",
"@.	c #316698",
"#.	c #35699A",
"$.	c #20588E",
"%.	c #2C6295",
"&.	c #326699",
"*.	c #316597",
"=.	c #D5D6D8",
"-.	c #7B7B7A",
";.	c #858585",
">.	c #C3C7CA",
",.	c #728699",
"'.	c #497199",
").	c #3D6C99",
"!.	c #76879A",
"~.	c #A7AEB5",
"{.	c #A6A6A6",
"].	c #BCBDBC",
"^.	c #B7B7B8",
"/.	c #AAABAC",
"(.	c #7E95AC",
"_.	c #8096AC",
":.	c #A3A7AB",
"<.	c #AEAEAE",
"[.	c #D3D3D3",
"}.	c #DFDFDE",
"|.	c #A7A7A7",
"1.	c #A3A4A3",
"                                ",
"                                ",
"          . + @ # $ %           ",
"        & * = - ; > , ' )       ",
"      ! ~ { ] ^ / ( _ : <       ",
"    [ } | 1 2 2 3 ( 4 5 6 7     ",
"    8 9 0 a a a b { c d e f     ",
"  g h i j k l m n o a p q r s   ",
"  t u v ( w a x a y z A B C D   ",
"  E F G H I J K L a M ] N O P   ",
"    Q R S a T U V W ( X Y Z     ",
"    `  ...+.@.#.$.%.&.*.=.-.    ",
"      ;.>.,.'.( ( ).!.~.{.      ",
"        ].^./.(._.:.<.[.        ",
"          }.|.+ + 1.@           ",
"                                "};
