/* XPM */
static char * heptacoin32_xpm[] = {
"32 32 317 2",
"  	c None",
". 	c #5C5C5C",
"+ 	c #555555",
"@ 	c #B9BAB9",
"# 	c #FFFFFF",
"$ 	c #DADADA",
"% 	c #747474",
"& 	c #464646",
"* 	c #5B5B5B",
"= 	c #585858",
"- 	c #484848",
"; 	c #626262",
"> 	c #C5C5C4",
", 	c #E2E3E2",
"' 	c #AAAAAA",
") 	c #9A9A9A",
"! 	c #D4D3D4",
"~ 	c #E8E8E7",
"{ 	c #808080",
"] 	c #3D3D3D",
"^ 	c #575757",
"/ 	c #4B4B4B",
"( 	c #6A6A6A",
"_ 	c #CECECD",
": 	c #DEDEDD",
"< 	c #A9A8A7",
"[ 	c #9B9896",
"} 	c #98999A",
"| 	c #999897",
"1 	c #9F9C9B",
"2 	c #D3D0CF",
"3 	c #F0F0EF",
"4 	c #888888",
"5 	c #40403F",
"6 	c #D8D8D8",
"7 	c #D9D9D9",
"8 	c #A2A1A1",
"9 	c #607B97",
"0 	c #2D6298",
"a 	c #477099",
"b 	c #838C97",
"c 	c #97999C",
"d 	c #5F7C9A",
"e 	c #2C6197",
"f 	c #4F759A",
"g 	c #899197",
"h 	c #CECBC9",
"i 	c #F6F6F5",
"j 	c #888889",
"k 	c #505050",
"l 	c #DFDFDE",
"m 	c #D5D5D6",
"n 	c #9A9C9D",
"o 	c #5C7998",
"p 	c #2C6399",
"q 	c #336799",
"r 	c #2F669A",
"s 	c #33679A",
"t 	c #336899",
"u 	c #2C6398",
"v 	c #4D759A",
"w 	c #878D95",
"x 	c #C6C5C6",
"y 	c #F2F2F2",
"z 	c #F4F4F3",
"A 	c #979798",
"B 	c #989899",
"C 	c #7A8899",
"D 	c #30679A",
"E 	c #336798",
"F 	c #346799",
"G 	c #50769B",
"H 	c #9B9999",
"I 	c #939394",
"J 	c #DBDBDB",
"K 	c #D1D1D1",
"L 	c #D0D0D0",
"M 	c #D0D1D1",
"N 	c #5F7D9A",
"O 	c #356698",
"P 	c #396798",
"Q 	c #A19E99",
"R 	c #99999A",
"S 	c #B4B4B5",
"T 	c #434343",
"U 	c #B9B9BA",
"V 	c #A09E9A",
"W 	c #7F8B98",
"X 	c #23598E",
"Y 	c #1E578E",
"Z 	c #1E578F",
"` 	c #1E578D",
" .	c #306497",
"..	c #356999",
"+.	c #20568C",
"@.	c #195490",
"#.	c #5C7590",
"$.	c #9F9D9D",
"%.	c #969796",
"&.	c #696969",
"*.	c #96999B",
"=.	c #3B6999",
"-.	c #265F93",
";.	c #376B9A",
">.	c #386999",
",.	c #CAD8E2",
"'.	c #2C6294",
").	c #798596",
"!.	c #F5F5F5",
"~.	c #989898",
"{.	c #5B5B5A",
"].	c #939393",
"^.	c #FCFCFC",
"/.	c #6B7D91",
"(.	c #336699",
"_.	c #2A5F94",
":.	c #9CB4C8",
"<.	c #32679A",
"[.	c #31659A",
"}.	c #B3C6D4",
"|.	c #FEFEFC",
"1.	c #42719E",
"2.	c #34679A",
"3.	c #53769A",
"4.	c #D9D6D5",
"5.	c #C7C7C6",
"6.	c #4D4D4D",
"7.	c #535353",
"8.	c #BCBCBC",
"9.	c #DEDCDB",
"0.	c #577897",
"a.	c #34689A",
"b.	c #1D558C",
"c.	c #1F578D",
"d.	c #1C568D",
"e.	c #7D9CB9",
"f.	c #A6BCCF",
"g.	c #AFC3D1",
"h.	c #245B91",
"i.	c #426F9E",
"j.	c #FFFFFE",
"k.	c #B0C3D3",
"l.	c #316699",
"m.	c #386898",
"n.	c #C6C4BF",
"o.	c #3B3B3B",
"p.	c #F3F3F2",
"q.	c #C8C5C1",
"r.	c #3D6C9A",
"s.	c #45729F",
"t.	c #FFFFFD",
"u.	c #93AFC9",
"v.	c #275E93",
"w.	c #275E92",
"x.	c #285F94",
"y.	c #BECDDC",
"z.	c #FEFFFD",
"A.	c #356797",
"B.	c #2A639A",
"C.	c #A0A1A2",
"D.	c #4A4A4A",
"E.	c #ADACAC",
"F.	c #276098",
"G.	c #2B6195",
"H.	c #C8D5E0",
"I.	c #9CB3C7",
"J.	c #EEF1F3",
"K.	c #F2F4F6",
"L.	c #8BA4BE",
"M.	c #9CB5CB",
"N.	c #6F7F90",
"O.	c #7C7C7B",
"P.	c #908F8F",
"Q.	c #6C8399",
"R.	c #31669A",
"S.	c #5B84AA",
"T.	c #9CB5CC",
"U.	c #E4EBF0",
"V.	c #BECDDB",
"W.	c #2C6195",
"X.	c #486F99",
"Y.	c #9D9A97",
"Z.	c #E2E2E1",
"`.	c #B0B0B1",
" +	c #A2A2A2",
".+	c #E6E7E6",
"++	c #969697",
"@+	c #9E9C9A",
"#+	c #51759A",
"$+	c #245C91",
"%+	c #E4EAEF",
"&+	c #F7F9F9",
"*+	c #20578E",
"=+	c #1E5389",
"-+	c #1F548B",
";+	c #4B77A1",
">+	c #89A6C3",
",+	c #346899",
"'+	c #396999",
")+	c #9A9A99",
"!+	c #C6C6C7",
"~+	c #E4E4E3",
"{+	c #E9E9E8",
"]+	c #D7D7D7",
"^+	c #5A7A98",
"/+	c #7598B9",
"(+	c #7C9CBB",
"_+	c #33689A",
":+	c #326899",
"<+	c #255D92",
"[+	c #DCE4EB",
"}+	c #F5F7F9",
"|+	c #275C90",
"1+	c #3C6B98",
"2+	c #A09C9A",
"3+	c #B7B8B8",
"4+	c #A7A7A7",
"5+	c #B4B4B4",
"6+	c #A09C99",
"7+	c #3C6C9A",
"8+	c #265D92",
"9+	c #F4F7F7",
"0+	c #EEF3F5",
"a+	c #255B90",
"b+	c #688EB2",
"c+	c #799AB9",
"d+	c #2A6298",
"e+	c #9A9A9B",
"f+	c #9C9C9D",
"g+	c #C6C6C6",
"h+	c #AFAFAF",
"i+	c #A8A6A5",
"j+	c #326699",
"k+	c #98B3CA",
"l+	c #6B91B4",
"m+	c #285E93",
"n+	c #F9FBFB",
"o+	c #EFF2F3",
"p+	c #245B92",
"q+	c #898E93",
"r+	c #E7E7E6",
"s+	c #DDDDDD",
"t+	c #F6F7F8",
"u+	c #8B9197",
"v+	c #2E6598",
"w+	c #2F6195",
"x+	c #285D92",
"y+	c #285D91",
"z+	c #316598",
"A+	c #36699A",
"B+	c #2A5F92",
"C+	c #2B5F92",
"D+	c #2C6196",
"E+	c #336797",
"F+	c #687F93",
"G+	c #E2E2E2",
"H+	c #4E4E4E",
"I+	c #494949",
"J+	c #728294",
"K+	c #306399",
"L+	c #537697",
"M+	c #C9C6C5",
"N+	c #5A5B5B",
"O+	c #60605F",
"P+	c #D1D0CE",
"Q+	c #617E98",
"R+	c #48729A",
"S+	c #47729B",
"T+	c #316697",
"U+	c #47709B",
"V+	c #436F9A",
"W+	c #4C7299",
"X+	c #B0AEAC",
"Y+	c #919191",
"Z+	c #565656",
"`+	c #828282",
" @	c #B6B3B2",
".@	c #9C9B99",
"+@	c #9C9A99",
"@@	c #949699",
"#@	c #306599",
"$@	c #2E6498",
"%@	c #78899C",
"&@	c #9E9A98",
"*@	c #9F9A98",
"=@	c #9F9D9C",
"-@	c #444444",
";@	c #B6B6B6",
">@	c #A0A0A1",
",@	c #98999C",
"'@	c #808E99",
")@	c #3A6B9A",
"!@	c #3D6D9B",
"~@	c #3D6C9B",
"{@	c #607E99",
"]@	c #9A999A",
"^@	c #949494",
"/@	c #E7E7E7",
"(@	c #474747",
"_@	c #494A49",
":@	c #F4F4F4",
"<@	c #C2C2C2",
"[@	c #C5C4C4",
"}@	c #CBC7C4",
"|@	c #CAC7C4",
"1@	c #C7C5C4",
"2@	c #C5C5C5",
"3@	c #F9F9F8",
"4@	c #FDFDFC",
"5@	c #FCFCFB",
"6@	c #FDFDFB",
"7@	c #FBFBFB",
"8@	c #909091",
"9@	c #454546",
"0@	c #3A3A3A",
"a@	c #3E3E3E",
"b@	c #474848",
"                                                                ",
"                                                                ",
"                                                                ",
"                                                                ",
"                      . + + @ # # $ % & *                       ",
"                  = - ; > # , ' ) ! # ~ { ] ^                   ",
"                / ( _ # : < [ } } | 1 2 # 3 4 5                 ",
"              % 6 # 7 8 9 0 a b c d e f g h # i j k             ",
"            l # m n o p q q q r 0 s q t u v w x # y             ",
"          ' z A B C D q q q q E q q q q q F G H I J K           ",
"        ^ L M B B N O q q q q q q q q q q q P Q R S # T         ",
"        ] # U V W X Y Z Z Z Z Z `  .q q ..+.@.#.$.%.# &.        ",
"        ; # *.=.-.# # # # # # # # ;.q E >.# # ,.'.).!.~..       ",
"      {.].^./.(._.# # # # # # # :.<.q [.}.|.# 1.2.3.4.5.6.      ",
"      7.8.9.0.s a.b.c.c.d.e.f.g.h.q q i.# j.k.l.q m.n.j.o.      ",
"      ] p.q.r.q q q q q s.# t.u.v.w.x.y.z.# A.q q B.C.# ^       ",
"      D.# E.F.q q q q G.H.j.j.I.J.K.L.# z.M.(.q q l.N.# 4       ",
"      O.# P.Q.R.q q F S.# j.T.# # U.V.t.# W.q q s X.Y.Z.`.      ",
"       +.+++@+#+q q $+%+j.&+*+=+-+;+# t.>+,+q q '+)+R !+~+      ",
"      {+]+++R ^+q 2./+# # (+_+:+<+[+j.}+|+s q q 1+2+R 3+#       ",
"      4+# 5+6+7+E 8+9+j.0+a+q ,+b+# # c+2.q q q d+e+f+# g+      ",
"        h+# i+A.j+k+# # l+,+q m+n+# o+p+E q q q p q+y r+D.      ",
"        - s+t+u+v+w+x+y+z+q q A+B+C+D+E+q q q [.F+G+j.H+        ",
"          I+!.{+J+K+<.q q q q q q s q q q q t L+M+# &.N+        ",
"          ^ O+# P+Q+R+S+'+F q q q q q T+U+V+W+X+# Y+H+          ",
"            Z+`+#  @.@+@@@#@F q F q $@%@&@*@=@# g+-@            ",
"              6.;@# >@R ,@'@)@!@!@~@{@.@]@^@y /@(@              ",
"                _@$ :@<@> [@}@|@|@}@1@2@> ~+# Z+                ",
"                    p.3@4@5@5@5@5@^.5@6@7@i 8@                  ",
"                        9@I+0@a@a@o.& b@                        ",
"                                                                ",
"                                                                "};
